<?xml version="1.0" encoding="UTF-8"?>
<svg version="1.1" xmlns="http://www.w3.org/2000/svg" width="295" height="300">
<path d="M0 0 C72.93 0 145.86 0 221 0 C221 73.59 221 147.18 221 223 C148.07 223 75.14 223 0 223 C0 149.41 0 75.82 0 0 Z " fill="#D94F01" transform="translate(74,0)"/>
<path d="M0 0 C18.48 0 36.96 0 56 0 C56 18.48 56 36.96 56 56 C37.52 56 19.04 56 0 56 C0 37.52 0 19.04 0 0 Z " fill="#FEFEFE" transform="translate(200,43)"/>
<path d="M0 0 C0.66 0 1.32 0 2 0 C2 72.93 2 145.86 2 221 C73.61 221 145.22 221 219 221 C219 148.07 219 75.14 219 0 C219.66 0 220.32 0 221 0 C221 73.59 221 147.18 221 223 C148.07 223 75.14 223 0 223 C0 149.41 0 75.82 0 0 Z " fill="#E05100" transform="translate(74,0)"/>
<path d="M0 0 C17 0 17 0 22 3 C24.45811625 6.68717438 24.31118164 8.64345704 24 13 C23.01 14.485 23.01 14.485 22 16 C21.34 16 20.68 16 20 16 C20 16.66 20 17.32 20 18 C20.639375 18.28875 21.27875 18.5775 21.9375 18.875 C24 20 24 20 25 22 C25.37712577 26.99691647 25.09290612 29.99067725 22 34 C18.84685215 36.10209857 18.13896919 36.2434761 14.55078125 36.1953125 C13.78677002 36.19031738 13.02275879 36.18532227 12.2355957 36.18017578 C11.27097412 36.16196777 10.30635254 36.14375977 9.3125 36.125 C6.239375 36.08375 3.16625 36.0425 0 36 C0 24.12 0 12.24 0 0 Z " fill="#FCF3EE" transform="translate(161,127)"/>
<path d="M0 0 C0 1.98 0 3.96 0 6 C-0.85271484 5.76410156 -0.85271484 5.76410156 -1.72265625 5.5234375 C-5.50998935 4.65293555 -9.15200221 4.3689558 -13 5 C-15.75569447 7.18159145 -17.43588747 8.87177494 -19 12 C-19.44136025 17.6273432 -18.58846715 21.11067315 -16 26 C-12.3558226 28.4294516 -10.28758728 28.16179575 -6 28 C-6 24.7 -6 21.4 -6 18 C-7.65 18 -9.3 18 -11 18 C-11 16.35 -11 14.7 -11 13 C-7.04 13 -3.08 13 1 13 C1 19.27 1 25.54 1 32 C-5.05119278 35.02559639 -12.59371805 35.34034442 -19.14453125 33.34765625 C-22.29697181 31.48811536 -24.29136642 28.66749235 -25.53125 25.2578125 C-26.82415921 19.0302998 -26.82086354 12.55379768 -24.875 6.5 C-18.32644561 -2.23140585 -10.02216552 -4.00886621 0 0 Z " fill="#FDF7F3" transform="translate(127,129)"/>
<path d="M0 0 C1.39412109 -0.04253906 1.39412109 -0.04253906 2.81640625 -0.0859375 C6.2548293 0.51873302 7.26639857 1.67942701 9.4375 4.375 C9.89160156 6.94042969 9.89160156 6.94042969 9.828125 9.796875 C9.80878906 11.33408203 9.80878906 11.33408203 9.7890625 12.90234375 C9.75554687 13.96582031 9.72203125 15.02929688 9.6875 16.125 C9.66945312 17.20394531 9.65140625 18.28289062 9.6328125 19.39453125 C9.58571415 22.05558788 9.519956 24.71484254 9.4375 27.375 C6.4375 27.375 3.4375 27.375 0.4375 27.375 C-0.84125 27.6225 -2.12 27.87 -3.4375 28.125 C-6.85745486 28.58477294 -7.37665126 28.48967262 -10.5 26.5625 C-13.1352964 23.76748867 -13.50784185 22.86692335 -13.9375 19 C-13.5625 15.375 -13.5625 15.375 -11.1875 13 C-7.698136 10.83991753 -6.00352389 10.25441394 -1.9375 10.3125 C-0.71160156 10.32603516 -0.71160156 10.32603516 0.5390625 10.33984375 C1.47878906 10.35724609 1.47878906 10.35724609 2.4375 10.375 C2.1075 9.385 1.7775 8.395 1.4375 7.375 C-2.5225 7.375 -6.4825 7.375 -10.5625 7.375 C-10.5625 5.725 -10.5625 4.075 -10.5625 2.375 C-6.93209389 0.7278103 -3.98418285 0.05541284 0 0 Z " fill="#FDF6F2" transform="translate(203.5625,134.625)"/>
<path d="M0 0 C2.31 0 4.62 0 7 0 C7.33 6.27 7.66 12.54 8 19 C9.7325 16.525 9.7325 16.525 11.5 14 C15.28075787 9.20653912 15.28075787 9.20653912 18.3125 8.3359375 C20.5 8.375 20.5 8.375 24 9 C23.04454634 10.46022163 22.08553322 11.91811468 21.125 13.375 C20.59132813 14.18710938 20.05765625 14.99921875 19.5078125 15.8359375 C18 18 18 18 16 20 C16.27038894 23.95116735 18.74434144 26.62524117 21.0625 29.6875 C25 34.91212654 25 34.91212654 25 36 C21.71545442 36.88956443 19.24834017 37.10613741 16 36 C12.69269929 31.97584594 10.33870627 27.63917756 8 23 C7.67 27.29 7.34 31.58 7 36 C4.69 36 2.38 36 0 36 C0 24.12 0 12.24 0 0 Z " fill="#FBEDE5" transform="translate(250,126)"/>
<path d="M0 0 C2.31 0 4.62 0 7 0 C7 0.66 7 1.32 7 2 C7.66 1.67 8.32 1.34 9 1 C12.77396601 -0.25798867 16.06073902 -0.66848065 20 0 C22.8100346 1.79363911 24.50940468 3.01880935 26 6 C26.08400529 7.59447464 26.10727467 9.19240545 26.09765625 10.7890625 C26.09443359 11.73007813 26.09121094 12.67109375 26.08789062 13.640625 C26.07951172 14.62546875 26.07113281 15.6103125 26.0625 16.625 C26.05798828 17.61757812 26.05347656 18.61015625 26.04882812 19.6328125 C26.03702145 22.0886016 26.020554 24.54427104 26 27 C23.69 27 21.38 27 19 27 C18.97494385 26.42967041 18.9498877 25.85934082 18.92407227 25.27172852 C18.80843451 22.70173843 18.68556376 20.13214473 18.5625 17.5625 C18.52318359 16.66466797 18.48386719 15.76683594 18.44335938 14.84179688 C18.40146484 13.98779297 18.35957031 13.13378906 18.31640625 12.25390625 C18.27974854 11.46314697 18.24309082 10.6723877 18.20532227 9.85766602 C18.19436743 7.98598559 18.19436743 7.98598559 17 7 C13.33655389 6.86431681 10.49384279 6.83538574 7 8 C7 14.27 7 20.54 7 27 C4.69 27 2.38 27 0 27 C0 18.09 0 9.18 0 0 Z " fill="#FDF6F3" transform="translate(219,135)"/>
<path d="M0 0 C8.25 0 16.5 0 25 0 C25 1.65 25 3.3 25 5 C22.03 5 19.06 5 16 5 C16 14.9 16 24.8 16 35 C13.69 35 11.38 35 9 35 C9 25.43 9 15.86 9 6 C6.03 6 3.06 6 0 6 C0 4.02 0 2.04 0 0 Z " fill="#FDF6F2" transform="translate(132,128)"/>
<path d="M0 0 C0 1.65 0 3.3 0 5 C2.64 5 5.28 5 8 5 C8.66 7.31 9.32 9.62 10 12 C10.66 9.69 11.32 7.38 12 5 C13.65 5 15.3 5 17 5 C15.98896258 9.82187075 14.90548098 14.61692859 13.625 19.375 C13.41101563 20.18710937 13.19703125 20.99921875 12.9765625 21.8359375 C11.77033891 24.50892898 10.52508353 25.54688589 8 27 C5.25 26.6875 5.25 26.6875 3 26 C3 24.68 3 23.36 3 22 C4.32 22 5.64 22 7 22 C6.44600983 18.02973711 5.50059058 14.70145675 4 11 C4 10.01 4 9.02 4 8 C2.68 8 1.36 8 0 8 C0 10.97 0 13.94 0 17 C1.32 17 2.64 17 4 17 C4 18.32 4 19.64 4 21 C0.625 21.1875 0.625 21.1875 -3 21 C-5.20914 17.68629 -5.22481553 16.6553979 -5.125 12.8125 C-5.10695313 11.91144531 -5.08890625 11.01039063 -5.0703125 10.08203125 C-5.04710938 9.39496094 -5.02390625 8.70789063 -5 8 C-5.66 8 -6.32 8 -7 8 C-7 5 -7 5 -5 3 C-4.67 2.34 -4.34 1.68 -4 1 C-1 0 -1 0 0 0 Z " fill="#465053" transform="translate(96,248)"/>
<path d="M0 0 C2.64 0 5.28 0 8 0 C8 1.32 8 2.64 8 4 C7.01 4.495 7.01 4.495 6 5 C6.99 5.99 7.98 6.98 9 8 C10.99983534 7.20882096 10.99983534 7.20882096 13 6 C13.33 5.01 13.66 4.02 14 3 C12.35 3.33 10.7 3.66 9 4 C9.33 2.68 9.66 1.36 10 0 C13 0 16 0 19 0 C20.010625 -0.04125 21.02125 -0.0825 22.0625 -0.125 C25 0 25 0 27 2 C27.04165763 3.99956611 27.04165763 6.00043389 27 8 C27.33 8.66 27.66 9.32 28 10 C27 12.625 27 12.625 25 15 C21.3125 15.3125 21.3125 15.3125 18 15 C18 14.34 18 13.68 18 13 C16.39620659 12.94583812 14.79188594 12.90713362 13.1875 12.875 C12.29417969 12.85179687 11.40085937 12.82859375 10.48046875 12.8046875 C7.74597286 12.81714173 7.74597286 12.81714173 5 15 C1.8125 15.125 1.8125 15.125 -1 15 C-0.67 14.01 -0.34 13.02 0 12 C2.0625 11.3125 2.0625 11.3125 4 11 C4 10.34 4 9.68 4 9 C2.35 9 0.7 9 -1 9 C-1.125 2.25 -1.125 2.25 0 0 Z M18 3 C17.71125 3.78375 17.4225 4.5675 17.125 5.375 C16 8 16 8 14 10 C15.32 10 16.64 10 18 10 C18.33 10.99 18.66 11.98 19 13 C20.65 12.34 22.3 11.68 24 11 C24 10.34 24 9.68 24 9 C22.68 9 21.36 9 20 9 C20 8.01 20 7.02 20 6 C21.32 5.67 22.64 5.34 24 5 C23.67 4.34 23.34 3.68 23 3 C21.35 3 19.7 3 18 3 Z " fill="#465053" transform="translate(252,285)"/>
<path d="M0 0 C0 1.32 0 2.64 0 4 C0.99 4.33 1.98 4.66 3 5 C3 5.99 3 6.98 3 8 C1.68 8 0.36 8 -1 8 C-0.67 8.66 -0.34 9.32 0 10 C0.039992 11.99960012 0.04346799 14.00047242 0 16 C0.99 16.33 1.98 16.66 3 17 C3 18.32 3 19.64 3 21 C0.66705225 21.04241723 -1.66702567 21.04092937 -4 21 C-5 20 -5 20 -5.09765625 17.27734375 C-5.08605469 16.17519531 -5.07445312 15.07304687 -5.0625 13.9375 C-5.05347656 12.83277344 -5.04445312 11.72804688 -5.03515625 10.58984375 C-5.02355469 9.73519531 -5.01195312 8.88054687 -5 8 C-7.64 8.33 -10.28 8.66 -13 9 C-12.175 9.53625 -11.35 10.0725 -10.5 10.625 C-8 13 -8 13 -7.5625 16.125 C-8 19 -8 19 -10 21 C-12.68839385 21.26991906 -15.29141936 21.08737357 -18 21 C-18 19.68 -18 18.36 -18 17 C-16.02 17 -14.04 17 -12 17 C-12 16.34 -12 15.68 -12 15 C-13.175625 14.8453125 -13.175625 14.8453125 -14.375 14.6875 C-17 14 -17 14 -19 11 C-18.75 8.375 -18.75 8.375 -18 6 C-15.35541621 4.67770811 -13.32238699 4.90322806 -10.375 4.9375 C-8.87066406 4.95103516 -8.87066406 4.95103516 -7.3359375 4.96484375 C-6.56507813 4.97644531 -5.79421875 4.98804688 -5 5 C-5 3.68 -5 2.36 -5 1 C-2 0 -2 0 0 0 Z " fill="#465054" transform="translate(177,248)"/>
<path d="M0 0 C9 0 9 0 11.5625 1.1875 C13.48146722 3.60706737 13.29548857 4.9712422 13 8 C13 10.54243499 13.0561703 13.0859592 13.1875 15.625 C13.125625 16.73875 13.06375 17.8525 13 19 C10 21 10 21 0 21 C0 14.07 0 7.14 0 0 Z M4 4 C4 5.32 4 6.64 4 8 C5.32 8 6.64 8 8 8 C8 6.68 8 5.36 8 4 C6.68 4 5.36 4 4 4 Z M4 12 C4 13.65 4 15.3 4 17 C5.65 16.67 7.3 16.34 9 16 C8.67 14.68 8.34 13.36 8 12 C6.68 12 5.36 12 4 12 Z " fill="#465154" transform="translate(190,248)"/>
<path d="M0 0 C1.98 0 3.96 0 6 0 C6 11.88 6 23.76 6 36 C4.02 36 2.04 36 0 36 C0 24.12 0 12.24 0 0 Z " fill="#FEFEFE" transform="translate(250,126)"/>
<path d="M0 0 C0.66 0.33 1.32 0.66 2 1 C2 2.32 2 3.64 2 5 C-0.64 5 -3.28 5 -6 5 C-7.26237731 7.52475462 -7.09856404 9.31200466 -7.0625 12.125 C-7.04896484 13.49011719 -7.04896484 13.49011719 -7.03515625 14.8828125 C-7.02355469 15.58148438 -7.01195312 16.28015625 -7 17 C-5.35 17 -3.7 17 -2 17 C-2 15.35 -2 13.7 -2 12 C-2.99 12 -3.98 12 -5 12 C-5 10.68 -5 9.36 -5 8 C-2.69 8 -0.38 8 2 8 C2.02686553 9.97909398 2.04633375 11.95828971 2.0625 13.9375 C2.07410156 15.03964844 2.08570313 16.14179688 2.09765625 17.27734375 C2 20 2 20 1 21 C-1.1796875 21.23828125 -1.1796875 21.23828125 -3.875 21.3125 C-4.75929688 21.34988281 -5.64359375 21.38726562 -6.5546875 21.42578125 C-9 21 -9 21 -10.7890625 19.3515625 C-13.11937225 14.82625131 -12.70727134 9.93742756 -12 5 C-8.74480864 -0.12939245 -5.88959526 -0.66674663 0 0 Z " fill="#465053" transform="translate(12,248)"/>
<path d="M0 0 C2.0625 0.4375 2.0625 0.4375 4 1 C4.33 3.31 4.66 5.62 5 8 C5.66 7.34 6.32 6.68 7 6 C9.625 5.875 9.625 5.875 12 6 C11.690625 6.556875 11.38125 7.11375 11.0625 7.6875 C9.88726777 10.24535838 9.20607304 12.18366852 9 15 C10.37249963 17.67676547 10.37249963 17.67676547 12 20 C12 20.66 12 21.32 12 22 C10.35 22 8.7 22 7 22 C6.34 20.68 5.68 19.36 5 18 C4.67 19.32 4.34 20.64 4 22 C2.35 22 0.7 22 -1 22 C-1.02887814 18.52085059 -1.04675687 15.04173169 -1.0625 11.5625 C-1.07087891 10.56927734 -1.07925781 9.57605469 -1.08789062 8.55273438 C-1.09111328 7.60849609 -1.09433594 6.66425781 -1.09765625 5.69140625 C-1.10289307 4.81685791 -1.10812988 3.94230957 -1.11352539 3.04125977 C-1 1 -1 1 0 0 Z " fill="#455053" transform="translate(239,247)"/>
<path d="M0 0 C8.3984375 -0.29296875 8.3984375 -0.29296875 11 0 C13.14553377 3.21830065 13.29583868 4.26786507 13.3125 8 C13.32925781 8.86625 13.34601563 9.7325 13.36328125 10.625 C13 13 13 13 11.6796875 14.80078125 C9.17533953 16.58876922 6.9857871 16.19905247 4 16 C4 17.65 4 19.3 4 21 C2.68 21 1.36 21 0 21 C0 14.07 0 7.14 0 0 Z M4 4 C4 6.64 4 9.28 4 12 C5.32 12 6.64 12 8 12 C9.33648017 10.88898816 9.33648017 10.88898816 9.125 8.0625 C9.21325664 5.08454272 9.21325664 5.08454272 8 3 C5.9254644 2.8509288 5.9254644 2.8509288 4 4 Z " fill="#465154" transform="translate(261,253)"/>
<path d="M0 0 C9.1796875 -0.29296875 9.1796875 -0.29296875 12 0 C14.42130331 3.63195496 14.21022785 5.38349348 14.125 9.6875 C14.10695313 10.86699219 14.08890625 12.04648437 14.0703125 13.26171875 C14.03550781 14.61716797 14.03550781 14.61716797 14 16 C12.35 16 10.7 16 9 16 C9 12.04 9 8.08 9 4 C7.68 4 6.36 4 5 4 C5 7.96 5 11.92 5 16 C3.35 16 1.7 16 0 16 C0 10.72 0 5.44 0 0 Z " fill="#455053" transform="translate(74,253)"/>
<path d="M0 0 C3.96 0 7.92 0 12 0 C13.99390001 3.98780002 14.22686963 5.47147572 14.125 9.75 C14.10695312 10.73484375 14.08890625 11.7196875 14.0703125 12.734375 C14.03550781 13.85585938 14.03550781 13.85585938 14 15 C12.35 15.33 10.7 15.66 9 16 C9 12.04 9 8.08 9 4 C7.68 4 6.36 4 5 4 C5 7.96 5 11.92 5 16 C3.35 16 1.7 16 0 16 C0 10.72 0 5.44 0 0 Z " fill="#475154" transform="translate(221,253)"/>
<path d="M0 0 C1.65 0 3.3 0 5 0 C5 3.96 5 7.92 5 12 C5.99 11.34 6.98 10.68 8 10 C8.36416047 7.56306689 8.36416047 7.56306689 8.1875 4.875 C8.14689453 3.50988281 8.14689453 3.50988281 8.10546875 2.1171875 C8.05326172 1.06917969 8.05326172 1.06917969 8 0 C9.65 0 11.3 0 13 0 C13 5.28 13 10.56 13 16 C4.6015625 16.1953125 4.6015625 16.1953125 2 16 C0 14 0 14 -0.1953125 10.7421875 C-0.17210937 9.46601563 -0.14890625 8.18984375 -0.125 6.875 C-0.10695312 5.59367187 -0.08890625 4.31234375 -0.0703125 2.9921875 C-0.04710937 2.00476563 -0.02390625 1.01734375 0 0 Z " fill="#455053" transform="translate(143,253)"/>
<path d="M0 0 C3.3 0 6.6 0 10 0 C12.05279359 4.10558718 12.2216942 5.80206685 12.125 10.25 C12.10695312 11.32765625 12.08890625 12.4053125 12.0703125 13.515625 C12.04710937 14.33546875 12.02390625 15.1553125 12 16 C10.20866022 16.05391993 8.41686101 16.09275571 6.625 16.125 C5.62726563 16.14820313 4.62953125 16.17140625 3.6015625 16.1953125 C1 16 1 16 -1 14 C-1.25 11 -1.25 11 -1 8 C1 6 1 6 4.125 5.875 C5.07375 5.91625 6.0225 5.9575 7 6 C7 5.34 7 4.68 7 4 C4.69 4 2.38 4 0 4 C0 2.68 0 1.36 0 0 Z M4 9 C4 10.32 4 11.64 4 13 C4.99 12.67 5.98 12.34 7 12 C7 11.01 7 10.02 7 9 C6.01 9 5.02 9 4 9 Z " fill="#455154" transform="translate(206,253)"/>
<path d="M0 0 C3.3 0 6.6 0 10 0 C12.05279359 4.10558718 12.2216942 5.80206685 12.125 10.25 C12.10695313 11.32765625 12.08890625 12.4053125 12.0703125 13.515625 C12.04710938 14.33546875 12.02390625 15.1553125 12 16 C10.20866022 16.05391993 8.41686101 16.09275571 6.625 16.125 C5.62726563 16.14820313 4.62953125 16.17140625 3.6015625 16.1953125 C1 16 1 16 -1 14 C-1.25 11 -1.25 11 -1 8 C1 6 1 6 4.125 5.875 C5.07375 5.91625 6.0225 5.9575 7 6 C7 5.34 7 4.68 7 4 C4.69 4 2.38 4 0 4 C0 2.68 0 1.36 0 0 Z M4 9 C4 10.32 4 11.64 4 13 C4.99 12.67 5.98 12.34 7 12 C7 11.01 7 10.02 7 9 C6.01 9 5.02 9 4 9 Z " fill="#455053" transform="translate(59,253)"/>
<path d="M0 0 C1.45792884 -0.05399736 2.91642712 -0.09279177 4.375 -0.125 C5.18710937 -0.14820313 5.99921875 -0.17140625 6.8359375 -0.1953125 C9 0 9 0 11 2 C11.1953125 5.2578125 11.1953125 5.2578125 11.125 9.125 C11.10695313 10.40632813 11.08890625 11.68765625 11.0703125 13.0078125 C11.04710937 13.99523437 11.02390625 14.98265625 11 16 C9.20906809 16.08086147 7.41710372 16.13912702 5.625 16.1875 C4.12839844 16.23970703 4.12839844 16.23970703 2.6015625 16.29296875 C1.74304687 16.19628906 0.88453125 16.09960938 0 16 C-2 13 -2 13 -1.75 9.875 C-1.5025 8.92625 -1.255 7.9775 -1 7 C1.70879335 5.64560332 4.00933268 5.93498549 7 6 C7 5.34 7 4.68 7 4 C4.69 4 2.38 4 0 4 C0 2.68 0 1.36 0 0 Z M3 9 C3.33 10.32 3.66 11.64 4 13 C4.99 12.67 5.98 12.34 7 12 C7 11.01 7 10.02 7 9 C5.68 9 4.36 9 3 9 Z " fill="#465154" transform="translate(35,253)"/>
<path d="M0 0 C1.32 0 2.64 0 4 0 C4 3.96 4 7.92 4 12 C5.32 12 6.64 12 8 12 C8 8.04 8 4.08 8 0 C9.65 0 11.3 0 13 0 C13 5.28 13 10.56 13 16 C4.6015625 16.1953125 4.6015625 16.1953125 2 16 C0 14 0 14 -0.1953125 10.7421875 C-0.17210938 9.46601563 -0.14890625 8.18984375 -0.125 6.875 C-0.10695313 5.59367187 -0.08890625 4.31234375 -0.0703125 2.9921875 C-0.04710938 2.00476563 -0.02390625 1.01734375 0 0 Z " fill="#465053" transform="translate(18,253)"/>
<path d="M0 0 C4.62 0 9.24 0 14 0 C13.67 1.32 13.34 2.64 13 4 C11.68 4 10.36 4 9 4 C9 9.61 9 15.22 9 21 C7.35 21 5.7 21 4 21 C4 15.39 4 9.78 4 4 C2.68 4 1.36 4 0 4 C0 2.68 0 1.36 0 0 Z " fill="#465053" transform="translate(120,248)"/>
<path d="M0 0 C3.125 0.1875 3.125 0.1875 6.125 2.1875 C6.38160094 5.26671132 6.51931504 7.39886993 5.125 10.1875 C5.73078253 12.20677511 6.39419734 14.21003397 7.125 16.1875 C5.475 15.8575 3.825 15.5275 2.125 15.1875 C1.795 14.1975 1.465 13.2075 1.125 12.1875 C0.795 13.5075 0.465 14.8275 0.125 16.1875 C-1.195 16.1875 -2.515 16.1875 -3.875 16.1875 C-3.90185095 13.70826199 -3.92176547 11.2293116 -3.9375 8.75 C-3.95006836 7.68942383 -3.95006836 7.68942383 -3.96289062 6.60742188 C-3.97153588 4.80056441 -3.92720011 2.99362397 -3.875 1.1875 C-2.875 0.1875 -2.875 0.1875 0 0 Z M0.125 4.1875 C0.125 5.1775 0.125 6.1675 0.125 7.1875 C1.115 6.8575 2.105 6.5275 3.125 6.1875 C3.125 5.5275 3.125 4.8675 3.125 4.1875 C2.135 4.1875 1.145 4.1875 0.125 4.1875 Z " fill="#465153" transform="translate(221.875,281.8125)"/>
<path d="M0 0 C3.34252724 -0.07427838 5.8035914 -0.06546953 9 1 C10.65 0.67 12.3 0.34 14 0 C14 4.29 14 8.58 14 13 C13.01 13 12.02 13 11 13 C10.67 10.36 10.34 7.72 10 5 C8.68 6.32 7.36 7.64 6 9 C6.66 9.33 7.32 9.66 8 10 C8 10.99 8 11.98 8 13 C5.03 13 2.06 13 -1 13 C0.00357498 8.98570009 0.29031275 8.59678361 3 6 C3.33 5.01 3.66 4.02 4 3 C2.35 3.33 0.7 3.66 -1 4 C-0.67 2.68 -0.34 1.36 0 0 Z " fill="#465054" transform="translate(281,285)"/>
<path d="M0 0 C0 1.32 0 2.64 0 4 C-1.98 4 -3.96 4 -6 4 C-5.67 6.31 -5.34 8.62 -5 11 C-3.35 11.33 -1.7 11.66 0 12 C0 13.32 0 14.64 0 16 C-6.625 16.25 -6.625 16.25 -10 14 C-10.58203125 11.9765625 -10.58203125 11.9765625 -10.8125 9.625 C-10.90144531 8.85414063 -10.99039062 8.08328125 -11.08203125 7.2890625 C-10.9878425 4.6607479 -10.41213908 3.20313107 -9 1 C-6.04335481 -0.4783226 -3.25770263 -0.06032783 0 0 Z " fill="#465054" transform="translate(295,253)"/>
<path d="M0 0 C1.98 0.495 1.98 0.495 4 1 C4 7.93 4 14.86 4 22 C2.35 22 0.7 22 -1 22 C-1.02887814 18.52085059 -1.04675687 15.04173169 -1.0625 11.5625 C-1.07087891 10.56927734 -1.07925781 9.57605469 -1.08789062 8.55273438 C-1.09111328 7.60849609 -1.09433594 6.66425781 -1.09765625 5.69140625 C-1.10289307 4.81685791 -1.10812988 3.94230957 -1.11352539 3.04125977 C-1 1 -1 1 0 0 Z " fill="#465052" transform="translate(278,247)"/>
<path d="M0 0 C7.38804781 -0.36334661 7.38804781 -0.36334661 10 1.1875 C11.34419875 3.62386024 11.35131571 5.25973747 11 8 C9 10 9 10 6.8359375 10.1953125 C4.55729167 10.13020833 2.27864583 10.06510417 0 10 C0 6.7 0 3.4 0 0 Z " fill="#DA550D" transform="translate(168,147)"/>
<path d="M0 0 C2.97 0 5.94 0 9 0 C9 1.32 9 2.64 9 4 C7.68 4 6.36 4 5 4 C5 7.96 5 11.92 5 16 C3.35 16 1.7 16 0 16 C0 10.72 0 5.44 0 0 Z " fill="#465053" transform="translate(133,253)"/>
<path d="M0 0 C0.7425 0.2475 1.485 0.495 2.25 0.75 C2.25 1.74 2.25 2.73 2.25 3.75 C0.93 3.75 -0.39 3.75 -1.75 3.75 C-1.75 6.39 -1.75 9.03 -1.75 11.75 C-0.43 11.75 0.89 11.75 2.25 11.75 C2.25 13.07 2.25 14.39 2.25 15.75 C-3.15 16.23 -3.15 16.23 -5.625 14.25 C-7.22348728 10.69780605 -7.45485993 7.57973893 -6.75 3.75 C-4.64544923 0.55420068 -3.86782915 -0.35162083 0 0 Z " fill="#465053" transform="translate(235.75,282.25)"/>
<path d="M0 0 C6.0546875 -0.1953125 6.0546875 -0.1953125 8 0 C8.66 0.66 9.32 1.32 10 2 C9.67028521 5.29714793 9.3773161 6.6226839 7 9 C3.375 9.125 3.375 9.125 0 9 C0 6.03 0 3.06 0 0 Z " fill="#DA560F" transform="translate(168,133)"/>
<path d="M0 0 C2.64 0 5.28 0 8 0 C8 1.32 8 2.64 8 4 C6.68 4 5.36 4 4 4 C4 7.96 4 11.92 4 16 C2.68 16 1.36 16 0 16 C0 10.72 0 5.44 0 0 Z " fill="#465154" transform="translate(50,253)"/>
<path d="M0 0 C1.23556641 0.01740234 1.23556641 0.01740234 2.49609375 0.03515625 C3.32238281 0.04417969 4.14867187 0.05320313 5 0.0625 C5.63808594 0.07410156 6.27617187 0.08570313 6.93359375 0.09765625 C7.12109375 2.47265625 7.12109375 2.47265625 6.93359375 5.09765625 C3.49252109 7.39170469 1.96519566 7.36058681 -2.06640625 7.09765625 C-3.06640625 6.09765625 -3.06640625 6.09765625 -3.19140625 3.59765625 C-3.01865637 0.14265862 -3.01865637 0.14265862 0 0 Z " fill="#DA550F" transform="translate(200.06640625,149.90234375)"/>
<path d="M0 0 C0 4.29 0 8.58 0 13 C-0.99 13 -1.98 13 -3 13 C-3.33 10.36 -3.66 7.72 -4 5 C-4.66 5 -5.32 5 -6 5 C-5.625 3.0625 -5.625 3.0625 -5 1 C-3 0 -3 0 0 0 Z " fill="#465054" transform="translate(249,285)"/>
</svg>
