<svg width="194" height="40" viewBox="0 0 194 40" fill="none" xmlns="http://www.w3.org/2000/svg">
<g clip-path="url(#clip0_594_13688)">
<path d="M17.9644 39.4529C17.9345 39.4046 17.9228 39.3472 17.9315 39.291H21.28C21.28 39.3487 21.2636 39.4063 21.2526 39.4639L17.9644 39.4529Z" fill="#928D8D"/>
<path d="M113.868 19.0855C114.463 18.5201 114.691 17.8751 115.045 17.3289C116.373 15.2869 118.122 14.554 120.282 15.081C121.58 15.3994 122.253 16.3216 122.824 17.4113C123.131 18.0014 123.307 18.9813 123.938 18.9922C124.569 19.0032 124.789 18.0343 125.104 17.4442C126.06 15.6547 127.635 14.9493 129.576 14.8834C131.445 14.823 132.65 15.8523 133.517 17.3536C134.791 19.5714 135.06 22.0526 135.298 24.5256C135.526 26.4546 135.617 28.3971 135.573 30.3389C135.526 31.4368 135.076 32.0516 133.978 32.2081C132.88 32.3645 131.815 32.5155 130.712 32.2986C129.427 32.0461 129.007 31.6097 129.007 30.306C129.007 28.0608 129.397 25.8184 129.007 23.5732C128.932 23.0339 128.78 22.5081 128.557 22.0114C128.203 21.2841 127.643 20.8202 126.79 20.8394C125.936 20.8586 125.387 21.3252 125.066 22.0718C124.517 23.3591 124.517 24.7232 124.555 26.0873C124.597 27.553 124.613 29.0187 124.684 30.4789C124.737 31.5301 124.24 32.0379 123.233 32.1943C122.044 32.381 120.858 32.5402 119.664 32.2629C118.781 32.0571 118.273 31.6289 118.262 30.5804C118.232 28.2008 118.536 25.8129 118.111 23.4442C117.801 21.7479 117.06 20.8449 115.967 20.8394C114.924 20.8394 114.233 21.6381 113.87 23.3618C113.373 25.7305 113.722 28.1212 113.777 30.4981C113.802 31.4835 113.437 31.9336 112.528 32.1449C111.329 32.4467 110.079 32.4851 108.864 32.2575C107.964 32.0708 107.459 31.5823 107.445 30.564C107.382 26.0297 107.357 21.5064 107.804 16.9804C107.953 15.4955 108.452 15.0069 109.943 14.9163C110.968 14.8642 111.997 14.9278 113.008 15.1057C113.782 15.232 114.057 15.5998 113.942 16.3436C113.802 17.1999 113.601 18.0563 113.868 19.0855Z" fill="#3A3738"/>
<path d="M51.7656 22.6353C51.5592 23.0851 51.4713 23.5803 51.5103 24.0736C51.4636 26.5603 51.3813 29.047 51.6311 31.5255C51.686 32.058 51.5679 32.3764 51.0108 32.4669C49.5274 32.7367 48.0102 32.7654 46.5177 32.552C45.8178 32.4395 45.5241 32.1376 45.5131 31.4184C45.3896 24.639 45.3704 17.8623 45.4994 11.0828C45.5131 10.4323 45.7738 10.1304 46.3722 10.0783C47.8703 9.91721 49.3823 9.93471 50.8763 10.1304C51.4609 10.221 51.6366 10.4323 51.5817 11.0664C51.4211 13.4805 51.4073 15.9021 51.5405 18.3179C51.5405 18.6088 51.6173 18.8998 51.6832 19.3801C53.2367 16.8138 54.933 14.5686 56.5688 12.2768C57.782 10.5805 59.2312 9.74889 61.3282 9.96572C62.448 10.081 63.5788 9.94926 64.7042 10.1661C65.4782 10.3143 65.6072 10.6601 65.2751 11.2969C64.9731 11.8678 64.7042 12.4579 64.3611 13.0041C62.5962 15.8065 60.6859 18.4936 58.2102 20.7744C61.1745 23.2776 63.3373 26.4011 65.1461 29.7744C66.3867 32.0909 66.1424 32.4532 63.4992 32.4889C61.9979 32.5081 60.4059 32.832 59.0171 32.2803C57.6283 31.7286 57.1919 30.0296 56.2998 28.8714C54.7436 26.8622 53.3026 24.7598 51.7656 22.6353Z" fill="#393637"/>
<path d="M143.398 18.4553C144.178 18.0217 144.554 17.437 144.984 16.9238C148.004 13.3117 152.804 14.857 154.467 17.577C156.82 21.4196 156.938 25.4132 154.824 29.404C153.263 32.3354 148.319 34.07 145.124 30.5787C144.63 30.0298 144.18 29.4369 143.365 28.9319C143.365 29.7691 143.365 30.4305 143.365 31.0948C143.365 31.6931 143.113 32.0252 142.49 32.1377C141.009 32.4193 139.49 32.4276 138.007 32.1625C137.269 32.028 137.028 31.6355 136.973 30.9054C136.61 26.0692 136.907 21.2385 137.104 16.4105C137.153 14.504 137.308 12.6018 137.568 10.7125C137.573 10.4931 137.657 10.2829 137.805 10.1209C137.953 9.95881 138.154 9.85597 138.372 9.83142C139.745 9.55694 141.136 9.35932 142.544 9.59537C143.774 9.79847 144.167 10.3227 144.07 11.5633C143.917 13.5313 143.247 15.4334 143.346 17.4261C143.357 17.7197 143.376 18.0162 143.398 18.4553ZM149.985 23.7389C149.985 21.7215 148.992 20.1159 147.537 19.8057C145.64 19.4022 143.969 20.4864 143.439 22.4571C142.868 24.5898 143.87 26.8487 145.635 27.3976C148.039 28.136 149.985 26.5083 149.985 23.7389Z" fill="#3A3738"/>
<path d="M73.4537 18.7277C74.0164 18.5191 74.1838 18.0443 74.4309 17.6518C74.9257 16.8251 75.6198 16.1356 76.4498 15.6464C77.2799 15.1572 78.2193 14.8838 79.1822 14.8513C80.1451 14.8188 81.1008 15.0282 81.9619 15.4604C82.823 15.8926 83.5621 16.5337 84.1115 17.3252C85.3164 18.972 85.7583 20.8933 85.9806 22.8722C86.2881 25.4852 86.2277 28.1119 86.1865 30.7358C86.1673 31.9572 85.8791 32.2262 84.6412 32.2482C83.5104 32.2701 82.3768 32.3113 81.2515 32.229C79.956 32.1329 79.5909 31.68 79.6568 30.401C79.7584 28.4605 79.9697 26.5282 79.8627 24.5822C79.8321 23.6963 79.6357 22.8239 79.2835 22.0104C79.0708 21.4648 78.6905 21.0008 78.1972 20.6851C77.704 20.3694 77.1233 20.2184 76.5388 20.2538C75.268 20.273 74.3074 20.8439 73.7941 22.0378C73.4674 22.8226 73.2815 23.6588 73.2451 24.5081C73.1299 26.5584 73.3824 28.5922 73.4784 30.6343C73.5141 31.4083 73.2177 31.8804 72.5041 32.0835C70.7749 32.5831 69.043 32.358 67.322 32.0204C66.8115 31.9243 66.9186 31.4577 66.9021 31.0982C66.7237 27.0771 66.8417 23.0561 66.9954 19.0379C67.0997 16.3151 67.2095 13.5923 67.4812 10.8751C67.5553 10.1312 67.7722 9.75796 68.527 9.67562C69.9949 9.54801 71.4705 9.53424 72.9405 9.63445C73.7008 9.67287 73.9917 10.2191 73.9121 10.9272C73.7419 12.4478 73.5196 13.9629 73.3632 15.4834C73.2232 16.5649 73.0914 17.6463 73.4537 18.7277Z" fill="#3A3738"/>
<path d="M99.6555 28.526C99.0571 28.9267 98.832 29.4839 98.5137 29.9505C97.0041 32.1078 94.8961 32.7501 92.3957 32.2753C90.0517 31.8306 88.4213 30.5598 87.8422 28.1582C86.8651 24.0713 87.0188 19.9899 87.8806 15.9113C87.963 15.5215 88.1331 15.2278 88.5888 15.1592C90.073 14.8908 91.5918 14.8731 93.0819 15.1071C93.9849 15.2745 94.2786 15.7191 94.1797 16.5727C94.0041 17.9918 93.8531 19.4135 93.7077 20.8353C93.5622 22.257 93.4332 23.6925 93.8174 25.1006C94.2017 26.5086 95.0992 27.1728 96.4853 27.1975C97.8714 27.2222 98.736 26.6074 99.1559 25.2762C99.6033 23.8572 99.6033 22.3943 99.4908 20.9259C99.3728 19.3641 99.3014 17.7969 99.1779 16.2351C99.1257 15.5545 99.4167 15.2553 100.07 15.1373C101.497 14.8902 102.916 14.7804 104.346 15.1208C104.665 15.1669 104.957 15.3237 105.172 15.5635C105.387 15.8033 105.51 16.111 105.521 16.4328C106.027 20.9373 106.22 25.4715 106.097 30.0026C106.037 31.9404 105.823 32.0996 103.838 32.3027C102.99 32.4235 102.129 32.4235 101.28 32.3027C100.1 32.0886 99.7625 31.7126 99.7707 30.5351C99.7707 29.9862 99.7707 29.4372 99.7707 28.902C99.7457 28.773 99.707 28.6469 99.6555 28.526Z" fill="#3A3738"/>
<path d="M167.947 28.6836C167.181 29.142 166.873 29.8584 166.379 30.4073C164.779 32.1914 162.863 32.9187 160.489 32.2792C158.628 31.7769 157.495 30.583 157.072 28.7111C156.657 26.8968 157.3 25.4174 158.65 24.2372C160.256 22.8346 162.24 22.3379 164.299 22.0661C165.185 21.9953 166.058 21.8165 166.901 21.5337C167.474 21.3058 167.947 20.9847 167.842 20.2601C167.738 19.5355 167.23 19.2473 166.563 19.1622C165.273 18.992 164.035 19.283 162.83 19.6672C161.625 20.0515 160.385 20.5208 159.196 21.0396C158.625 21.2839 158.474 21.0945 158.392 20.6004C158.238 19.5199 158.238 18.423 158.392 17.3425C158.505 16.3571 158.988 15.7697 159.995 15.5117C162.745 14.7616 165.628 14.6378 168.432 15.1494C171.336 15.6984 173.153 17.3809 173.732 20.3644C174.435 23.971 174.49 27.6022 174.394 31.2499C174.38 31.8291 174.037 31.9993 173.57 32.109C171.866 32.5125 170.175 32.3506 168.487 32.0075C167.974 31.9059 168.007 31.5107 167.985 31.1429C167.944 30.3661 168.158 29.6059 167.947 28.6836ZM167.856 24.8904C167.749 24.4979 168.04 23.9051 167.307 23.6773C166.003 23.2683 164.192 23.8365 163.464 24.9371C163.058 25.5382 162.902 26.1777 163.278 26.8584C163.445 27.1591 163.693 27.4064 163.995 27.5716C164.297 27.7367 164.639 27.813 164.982 27.7916C165.363 27.7938 165.74 27.7201 166.091 27.5748C166.442 27.4294 166.761 27.2154 167.029 26.9452C167.297 26.6749 167.508 26.354 167.65 26.0012C167.792 25.6484 167.862 25.2707 167.856 24.8904Z" fill="#3A3738"/>
<path d="M186.93 28.6837C186.167 29.142 185.856 29.8584 185.365 30.4074C183.765 32.1914 181.846 32.9188 179.472 32.2793C177.611 31.777 176.48 30.583 176.055 28.7111C175.643 26.8969 176.286 25.4175 177.633 24.2372C179.239 22.8347 181.226 22.3379 183.285 22.0662C184.17 21.9954 185.044 21.8165 185.887 21.5337C186.457 21.3059 186.93 20.9847 186.828 20.2601C186.726 19.5355 186.216 19.2473 185.546 19.1622C184.259 18.9921 183.021 19.283 181.816 19.6673C180.611 20.0515 179.368 20.5209 178.179 21.0396C177.611 21.2839 177.46 21.0945 177.378 20.6005C177.224 19.5199 177.224 18.423 177.378 17.3425C177.493 16.3571 177.974 15.7698 178.984 15.5118C181.733 14.7616 184.615 14.6377 187.418 15.1495C190.325 15.6984 192.142 17.3809 192.721 20.3644C193.424 23.971 193.478 27.6023 193.382 31.25C193.366 31.8291 193.026 31.9993 192.559 32.1091C190.857 32.5126 189.167 32.3506 187.476 32.0075C186.963 31.906 186.998 31.5107 186.976 31.1429C186.93 30.3662 187.144 29.6059 186.93 28.6837ZM186.839 24.8905C186.732 24.498 187.026 23.9051 186.29 23.6773C184.986 23.2683 183.175 23.8365 182.447 24.9371C182.044 25.5382 181.899 26.1777 182.261 26.8584C182.428 27.1589 182.677 27.406 182.978 27.5711C183.28 27.7363 183.622 27.8127 183.965 27.7916C184.346 27.7939 184.723 27.7202 185.074 27.5748C185.425 27.4295 185.744 27.2154 186.012 26.9452C186.28 26.675 186.491 26.3541 186.633 26.0012C186.775 25.6484 186.845 25.2708 186.839 24.8905Z" fill="#3A3738"/>
<path d="M9.56772 7.30364C15.6317 7.27116 21.67 8.09353 27.5045 9.74645C29.7417 10.388 31.8698 11.3623 33.8173 12.6366C35.2254 13.5369 36.606 14.503 38.2583 14.9285C38.6727 15.0355 38.7743 15.3319 38.8402 15.6723C39.0522 16.7768 39.1743 17.8966 39.2052 19.0209C39.2295 19.2245 39.1827 19.4303 39.0726 19.6033C38.9626 19.7764 38.7961 19.9061 38.6014 19.9705C37.476 20.4618 36.4056 20.4289 35.4312 19.6219C34.0314 18.4692 32.6398 17.3136 31.2236 16.1801C29.5301 14.8242 27.7295 13.6879 25.5063 13.3695C24.6609 13.2487 23.9363 11.6897 24.241 10.8471C24.3919 10.4299 24.0132 10.4189 23.7909 10.4271C22.8676 10.4947 21.942 10.3305 21.0983 9.94955C21.0547 9.92239 21.0053 9.90615 20.9541 9.90224C20.9029 9.89832 20.8515 9.90684 20.8044 9.92706C20.7572 9.94727 20.7156 9.9786 20.6831 10.0184C20.6507 10.0581 20.6283 10.1051 20.618 10.1554C20.3215 10.9486 19.8522 10.6549 19.4213 10.3283C19.0653 10.0079 18.6479 9.7632 18.1944 9.60921C18.0681 9.57902 17.8595 9.51863 17.8458 9.44178C17.4807 7.64673 16.199 8.58817 15.4442 8.81324C14.5988 9.06575 13.4158 8.69796 12.9245 9.6943C12.3564 10.8361 11.1459 11.4646 10.6985 12.6668C10.6571 12.846 10.5487 13.0026 10.3957 13.1046C10.2427 13.2066 10.0565 13.2464 9.87513 13.2158C7.31705 13.0868 4.85778 12.6202 2.57966 11.3768C2.03072 11.0721 2.03072 10.8416 2.26402 10.2926C3.16429 8.1847 4.49273 6.87821 7.01238 7.27345C7.83855 7.41618 8.71137 7.30364 9.56772 7.30364Z" fill="#F47D23"/>
<path d="M11.7525 37.3227C11.1689 37.364 10.5871 37.221 10.0892 36.9137C7.28214 35.3251 4.89487 33.0893 3.12583 30.3923C2.93296 30.1354 2.81325 29.8311 2.77942 29.5117C2.74559 29.1922 2.79891 28.8696 2.9337 28.578C3.93003 26.1078 5.64548 24.3539 8.17063 23.4372C8.8799 23.1623 9.66476 23.1537 10.3798 23.4131C11.0949 23.6725 11.6918 24.1822 12.0599 24.8479C12.3521 25.3475 12.593 25.8754 12.779 26.4234C13.5667 28.7427 14.3545 31.062 15.0791 33.4005C15.9025 36.0436 15.2438 36.9686 12.4661 37.2431L11.7525 37.3227Z" fill="#A63A93"/>
<path d="M27.8449 9.21078C26.4725 8.90063 24.7488 8.49166 23.0169 8.11289C18.3726 7.08013 13.6183 6.62563 8.8624 6.75975C8.41813 6.79895 7.97049 6.75045 7.54493 6.61702C6.10395 6.09278 5.9475 5.31602 7.0948 4.35537L7.17165 4.2895C10.8331 1.27031 11.8624 0.995835 16.3939 2.2886C20.5329 3.46059 24.6281 4.75884 28.7451 5.99122C30.0654 6.38921 30.5923 6.91619 30.4908 7.77529C30.3892 8.63439 29.5192 9.22725 27.8449 9.21078Z" fill="#FCB02B"/>
<path d="M16.5752 18.7426C14.4388 18.8783 12.3585 19.4827 10.4819 20.5129C9.47462 21.0784 8.3383 20.9384 7.26786 20.7874C4.96975 20.4174 2.74408 19.6884 0.672299 18.6273C0.21942 18.4023 -0.0138808 18.1689 0.046503 17.6282C0.241623 15.8705 0.650877 14.1431 1.26516 12.4846C1.43259 12.029 1.68236 11.9055 2.11328 12.0345C2.3802 12.091 2.63986 12.1775 2.88729 12.2925C4.95132 13.47 7.22395 13.6786 9.52402 13.6649C10.438 13.6649 10.5505 14.0327 10.4051 14.7847C10.1745 15.9979 11.2889 18.254 12.4279 18.5697C13.2811 18.7849 14.1826 18.6966 14.9778 18.3199C15.5569 18.0784 16.0784 17.9905 16.5752 18.7426Z" fill="#ED383A"/>
<path d="M17.5255 31.3131C17.5597 30.8867 17.7211 30.4804 17.9888 30.1467C18.2564 29.813 18.618 29.5672 19.0268 29.4412C19.6938 29.2848 19.6444 29.9215 19.9106 30.2152C20.1769 30.5089 19.7487 31.2747 20.4376 31.2582C21.1677 31.239 21.9884 31.2857 22.562 30.7093C23.1357 30.1329 23.8054 29.6498 23.9344 28.7441C24.0277 28.1292 24.6123 28.1649 25.0872 28.1594C27.1869 28.1265 29.1301 28.7633 31.0157 29.5977C32.1136 30.078 33.25 30.465 34.0734 31.4064C34.54 31.9389 34.6223 32.3012 34.1063 32.9545C32.6571 34.8264 31.1338 35.5235 28.8227 34.2829C27.099 33.3552 25.0789 33.2866 23.111 33.3552C21.6409 33.4543 20.1651 33.2812 18.7578 32.8447C17.8795 32.551 17.52 32.1008 17.5255 31.3131Z" fill="#2FADE4"/>
<path d="M34.408 28.4511C33.2937 29.2745 32.0503 29.1126 30.8619 28.764C29.0256 28.2288 27.151 27.8473 25.2983 27.3917C24.9909 27.3148 24.6643 27.2874 24.5682 26.9333C24.4722 26.5792 24.7933 26.3514 25.0348 26.2224C26.3194 25.528 26.6021 24.6085 26.0229 23.2471C25.7979 22.7202 25.6496 21.8336 26.1684 21.4054C26.6323 21.0212 27.2306 21.6031 27.7274 21.8226C29.506 22.6131 31.2351 23.5079 33.0247 24.2654C33.5877 24.4688 34.0755 24.8388 34.4231 25.3261C34.7707 25.8135 34.9617 26.3951 34.9707 26.9937C34.7841 27.4804 34.5965 27.9662 34.408 28.4511Z" fill="#3C3839"/>
<path d="M21.2583 39.2791H17.9097C16.842 39.0458 16.4083 38.28 16.3287 37.2946C16.2491 36.3093 16.8118 35.4721 17.8136 35.1153C18.1313 34.9943 18.4653 34.9212 18.8045 34.8985C21.3214 34.7942 23.841 34.6734 26.3552 34.9561C26.7821 34.9807 27.1992 35.0942 27.5797 35.2894C27.9602 35.4846 28.2957 35.7572 28.5647 36.0897C28.949 36.6002 29.0286 37.0229 28.2902 37.355C26.067 38.3898 23.7614 39.1748 21.2583 39.2791Z" fill="#3C3839"/>
<path d="M29.2481 16.7402C28.4796 16.9296 27.626 17.3331 27.2225 16.7731C26.8191 16.2132 26.3387 15.8756 25.9984 15.3569C25.7596 14.9918 25.5839 14.5883 25.3369 14.119C26.1263 14.0213 26.9246 14.2092 27.5876 14.6487C30.3543 16.2407 32.8245 18.2388 35.2975 20.2315C35.9178 20.731 35.8739 21.8975 35.2508 22.7594C34.765 23.4263 34.1365 23.989 33.2609 23.4922C31.1989 22.2952 29.0416 21.2707 26.8108 20.4291C27.7825 19.2681 29.0533 18.4035 29.2481 16.7402Z" fill="#ED383A"/>
<path d="M33.851 6.01879C32.8245 6.49638 31.8528 6.32895 30.9745 6.04624C28.152 5.13095 25.4091 3.98624 22.7733 2.62358C21.9993 2.22834 21.4668 1.60803 21.6754 0.644637C21.755 0.263121 21.9197 -0.0717397 22.4302 0.0133466C26.8034 0.676193 30.8263 2.79155 33.851 6.01879Z" fill="#774738"/>
<path d="M17.6104 25.9802C16.3012 25.7607 14.9617 25.4862 13.7678 24.789C12.077 23.8037 12.0057 21.8247 13.6058 20.672C14.7037 19.8732 16.0239 19.8074 17.3167 19.6619C17.7174 19.618 17.8053 19.8348 17.7202 20.1504C17.6643 20.3466 17.6603 20.5539 17.7084 20.752C17.7565 20.9502 17.8551 21.1326 17.9947 21.2813C19.1337 22.6921 18.958 24.2071 18.3487 25.7634C18.1895 26.1696 17.8904 25.9006 17.6104 25.9802Z" fill="#3C3839"/>
<path d="M34.4077 28.452C34.5907 27.9671 34.7737 27.4804 34.9567 26.9918C35.6483 26.366 35.6566 25.4356 35.975 24.6478C36.2934 23.8601 36.5019 23.0339 36.9246 22.2901C37.1107 21.9212 37.3959 21.6114 37.7481 21.3953C38.1378 21.1785 38.5989 20.8464 38.9832 21.0797C39.3674 21.313 39.1177 21.8345 39.0655 22.2133C38.6823 25.1223 37.6505 27.9082 36.0463 30.3651C35.8322 30.6917 35.7389 31.2983 35.0994 31.0403C34.8388 30.9509 34.6158 30.7764 34.4664 30.5449C34.3171 30.3133 34.25 30.0383 34.276 29.764C34.3062 29.3331 34.3666 28.8884 34.4077 28.452Z" fill="#59665A"/>
<path d="M0.0388159 21.0407C-0.0627387 19.339 -0.0627387 19.339 1.41118 19.9429C2.36938 20.3041 3.28442 20.7708 4.13943 21.3344C5.34985 22.1826 5.39925 23.5714 4.27392 24.521C4.06407 24.6954 3.83583 24.8464 3.59323 24.9712C1.5292 26.0691 0.788123 25.7534 0.346223 23.5412C0.152866 22.7214 0.0497848 21.8829 0.0388159 21.0407Z" fill="#EC3090"/>
<path d="M38.0197 12.8476C36.2273 12.123 34.6409 11.6015 33.2054 10.7424C32.4232 10.2731 31.8715 9.64453 32.1542 8.6482C32.3683 7.89614 33.5622 7.11389 34.4021 7.11389C34.5202 7.10433 34.6388 7.12444 34.7471 7.17237C34.8554 7.22031 34.9501 7.29455 35.0224 7.38836C36.3117 9.033 37.3241 10.877 38.0197 12.8476Z" fill="#8FA83F"/>
<path d="M15.2364 25.9806C16.5951 25.9943 17.7231 26.9166 17.7478 28.0282C17.7725 29.1398 16.4167 30.869 15.4313 30.9842C15.2605 31.0099 15.0863 30.9709 14.9427 30.875C14.799 30.7791 14.6963 30.6331 14.6545 30.4655C14.2977 29.5186 13.9025 28.5771 13.6335 27.6C13.3481 26.5872 13.9903 25.9696 15.2364 25.9806Z" fill="#434497"/>
</g>
<defs>
<clipPath id="clip0_594_13688">
<rect width="193.418" height="39.4526" fill="white"/>
</clipPath>
</defs>
</svg>
